<?xml version="1.0" standalone="no"?>
<!DOCTYPE svg PUBLIC "-//W3C//DTD SVG 1.1//EN" "http://www.w3.org/Graphics/SVG/1.1/DTD/svg11.dtd" >
<svg xmlns="http://www.w3.org/2000/svg">
<metadata>Generated by IcoMoon</metadata>
<defs>
<font id="icomoon" horiz-adv-x="1024">
<font-face units-per-em="1024" ascent="960" descent="-64" />
<missing-glyph horiz-adv-x="1024" />
<glyph unicode="&#x20;" horiz-adv-x="512" d="" />
<glyph unicode="&#xe900;" glyph-name="test" horiz-adv-x="1071" d="M791.273 587.636v93.091h-372.364v-93.091h372.364zM325.818 587.636v93.091h-93.091v-93.091h93.091zM791.273 401.455v93.091h-372.364v-93.091h372.364zM325.818 401.455v93.091h-93.091v-93.091h93.091zM791.273 215.273v93.091h-372.364v-93.091h372.364zM325.818 215.273v93.091h-93.091v-93.091h93.091zM977.455 866.909v-837.818h-884.364v837.818h884.364zM93.091 960c-51.413 0-93.091-41.678-93.091-93.091v-837.818c0-51.414 41.678-93.091 93.091-93.091h884.364c51.414 0 93.091 41.677 93.091 93.091v837.818c0 51.413-41.677 93.091-93.091 93.091h-884.364z" />
<glyph unicode="&#xe901;" glyph-name="video" horiz-adv-x="1205" d="M1084.235 839.529v-783.059h-963.765v783.059h963.765zM120.471 960c-66.534 0-120.471-53.936-120.471-120.471v-783.059c0-66.536 53.937-120.471 120.471-120.471h963.765c66.536 0 120.471 53.935 120.471 120.471v783.059c0 66.534-53.935 120.471-120.471 120.471h-963.765zM481.882 237.176l361.412 210.824-361.412 210.824v-421.647zM602.353 449.080v-2.16l1.849 1.080-1.849 1.080z" />
<glyph unicode="&#xe902;" glyph-name="document" horiz-adv-x="939" d="M128 874.667c-23.564 0-42.667-19.103-42.667-42.667v-768c0-23.565 19.103-42.667 42.667-42.667h682.667c23.565 0 42.667 19.102 42.667 42.667v768c0 23.564-19.102 42.667-42.667 42.667h-682.667zM0 832c0 70.693 57.308 128 128 128h682.667c70.694 0 128-57.308 128-128v-768c0-70.694-57.306-128-128-128h-682.667c-70.692 0-128 57.306-128 128v768zM426.667 337.673v323.661h85.333v-323.661l140.497 140.497 60.339-60.339-243.503-243.503-243.503 243.503 60.34 60.339 140.497-140.497z" />
<glyph unicode="&#xe903;" glyph-name="webinar" horiz-adv-x="1472" d="M1439.616 952.407c-19.75 11.136-44.16 9.984-62.925-3.198l-272.691-189.689v136.441c0 35.326-27.482 63.999-61.338 63.999h-858.662c-178.848 0-184-459.629-184-511.977s5.152-511.983 184-511.983h858.662c33.856 0 61.338 28.672 61.338 64v136.442l272.691-189.69c10.182-7.168 22.080-10.752 33.971-10.752 9.939 0 19.872 2.56 28.954 7.552 19.872 11.136 32.384 32.768 32.384 56.448v895.962c0 23.681-12.39 45.31-32.384 56.446zM1349.338 119.546l-272.691 189.69c-18.765 13.053-43.053 14.205-62.925 3.194-19.872-11.136-32.384-32.762-32.384-56.442v-192.122l-786.298-2.688c-24.409 18.304-72.375 154.746-72.375 386.8 0 232.052 47.96 368.499 61.335 383.985h797.338v-191.992c0-23.681 12.39-45.311 32.384-56.446 19.872-11.135 44.16-9.857 62.925 3.198l272.691 189.688v-656.865z" />
<glyph unicode="&#xe904;" glyph-name="down" d="M401.667 106.667v853.333h170.667v-853.333h-170.667zM0 472.987l120.679 120.679 366.327-366.327 366.327 366.327 120.678-120.679-487.005-487.008-487.007 487.008z" />
<glyph unicode="&#xe905;" glyph-name="right" horiz-adv-x="1570" d="M1115.689 923.205l434.449-434.447c26.658-26.659 26.658-69.884 0-96.543l-434.449-434.445c-26.658-26.658-69.878-26.658-96.543 0-26.658 26.658-26.658 69.885 0 96.543l317.911 317.908h-1337.057v136.533h1337.057l-317.911 317.908c-26.658 26.659-26.658 69.884 0 96.544 26.665 26.66 69.885 26.66 96.543 0z" />
<glyph unicode="&#xe906;" glyph-name="upload" d="M944 334.71v-278.001c0-22.057-17.946-39.997-40.003-39.997h-783.997c-22.056 0-40 17.94-40 39.997v278.001h-80v-278.001c0-66.166 53.832-119.997 120-119.997h783.997c66.171 0 120.003 53.832 120.003 119.997v278.001h-80zM511.997 959.25l-248.568-248.568 56.568-56.568 152 152v-623.432h80.001v623.432l151.997-152 56.571 56.568-248.569 248.568z" />
<glyph unicode="&#xe907;" glyph-name="youtube" horiz-adv-x="1058" d="M793.088 613.328c-16.667 28.748-34.751 34.035-71.578 36.046-36.785 2.42-129.294 3.426-209.435 3.426-80.292 0-172.837-1.005-209.585-3.388-36.749-2.048-54.874-7.298-71.693-36.083-17.165-28.71-25.997-78.159-25.997-165.216 0-0.075 0-0.113 0-0.113 0-0.075 0-0.113 0-0.113v-0.075c0-86.685 8.832-136.506 25.997-164.919 16.819-28.747 34.906-33.959 71.655-36.379 36.787-2.086 129.332-3.314 209.624-3.314 80.142 0 172.65 1.229 209.473 3.277 36.826 2.42 54.914 7.632 71.578 36.379 17.319 28.413 26.074 78.234 26.074 164.922 0 0 0 0.109 0 0.184 0 0 0 0.075 0 0.113 0 87.095-8.755 136.544-26.112 165.253zM435.2 336.292v223.416l192-111.708-192-111.708z" />
<glyph unicode="&#xe908;" glyph-name="vk" horiz-adv-x="1058" d="M493.35 223.437h40.243c0 0 12.155 1.335 18.36 8.015 5.711 6.134 5.53 17.65 5.53 17.65s-0.785 53.924 24.276 61.863c24.702 7.823 56.426-52.115 90.051-75.162 25.426-17.439 44.745-13.616 44.745-13.616l89.907 1.249c0 0 47.032 2.895 24.733 39.823-1.83 3.021-12.988 27.317-66.847 77.24-56.375 52.251-48.824 43.8 19.081 134.182 41.359 55.047 57.89 88.651 52.726 103.045-4.925 13.708-35.342 10.083-35.342 10.083l-101.229-0.628c0 0-7.503 1.021-13.070-2.301-5.437-3.26-8.936-10.851-8.936-10.851s-16.022-42.595-37.393-78.821c-45.073-76.438-63.099-80.473-70.465-75.725-17.135 11.059-12.858 44.438-12.858 68.151 0 74.073 11.25 104.957-21.907 112.954-11.005 2.656-19.104 4.407-47.244 4.69-36.12 0.375-66.69-0.109-84.002-8.578-11.513-5.632-20.398-18.183-14.988-18.903 6.69-0.894 21.845-4.079 29.877-15.005 10.373-14.090 10.008-45.745 10.008-45.745s5.96-87.197-13.92-98.031c-13.643-7.427-32.362 7.741-72.55 77.087-20.59 35.523-36.136 74.786-36.136 74.786s-2.998 7.339-8.344 11.261c-6.489 4.755-15.556 6.27-15.556 6.27l-96.194-0.628c0 0-14.44-0.403-19.741-6.673-4.716-5.577-0.375-17.111-0.375-17.111s75.31-175.951 160.582-264.615c78.187-81.295 166.978-75.957 166.978-75.957z" />
<glyph unicode="&#xe909;" glyph-name="insta" horiz-adv-x="1058" d="M818.586 574.566c-1.44 32.645-6.717 55.087-14.281 74.535-7.799 20.643-19.804 39.125-35.529 54.489-15.363 15.603-33.966 27.727-54.371 35.407-19.558 7.562-41.885 12.842-74.53 14.281-32.891 1.561-43.332 1.922-126.747 1.922s-93.856-0.361-126.624-1.8c-32.645-1.439-55.089-6.723-74.532-14.281-20.648-7.802-39.129-19.804-54.494-35.529-15.603-15.364-27.722-33.968-35.407-54.372-7.562-19.565-12.842-41.887-14.281-74.533-1.561-32.887-1.922-43.329-1.922-126.747 0-83.415 0.361-93.856 1.8-126.624 1.439-32.645 6.723-55.088 14.286-74.537 7.802-20.64 19.921-39.124 35.524-54.487 15.364-15.602 33.968-27.727 54.372-35.407 19.565-7.564 41.886-12.841 74.538-14.281 32.761-1.444 43.206-1.799 126.624-1.799 83.415 0 93.856 0.355 126.624 1.799 32.645 1.44 55.088 6.717 74.53 14.281 41.291 15.964 73.936 48.609 89.9 89.894 7.557 19.565 12.841 41.892 14.281 74.537 1.44 32.768 1.799 43.209 1.799 126.624 0 83.418-0.119 93.86-1.56 126.628zM763.259 323.717c-1.324-30.007-6.362-46.21-10.564-57.013-10.322-26.767-31.567-48.009-58.334-58.334-10.8-4.198-27.122-9.24-57.009-10.557-32.406-1.444-42.127-1.799-124.102-1.799-81.978 0-91.819 0.355-124.109 1.799-30.007 1.318-46.21 6.359-57.010 10.557-13.32 4.925-25.444 12.725-35.285 22.927-10.202 9.964-18.004 21.965-22.926 35.284-4.201 10.803-9.241 27.129-10.558 57.013-1.444 32.406-1.8 42.131-1.8 124.105 0 81.978 0.356 91.819 1.8 124.102 1.318 30.007 6.358 46.21 10.558 57.013 4.923 13.324 12.724 25.444 23.048 35.289 9.958 10.202 21.961 18.004 35.285 22.922 10.801 4.201 27.127 9.241 57.011 10.563 32.406 1.439 42.131 1.801 124.102 1.801 82.097 0 91.819-0.361 124.109-1.801 30.003-1.322 46.206-6.362 57.009-10.563 13.319-4.918 25.443-12.72 35.284-22.922 10.202-9.963 18.005-21.965 22.927-35.289 4.202-10.803 9.24-27.122 10.564-57.013 1.437-32.406 1.799-42.124 1.799-124.102 0-81.975-0.362-91.576-1.799-123.983zM513.13 605.768c-87.132 0-157.829-70.694-157.829-157.833s70.697-157.829 157.829-157.829c87.139 0 157.833 70.69 157.833 157.829s-70.694 157.833-157.833 157.833zM513.13 345.556c-56.528 0-102.38 45.848-102.38 102.38 0 56.535 45.851 102.383 102.38 102.383 56.535 0 102.383-45.848 102.383-102.383 0-56.532-45.848-102.38-102.383-102.38zM714.032 612.021c0-20.347-16.5-36.847-36.854-36.847-20.347 0-36.844 16.5-36.844 36.847 0 20.352 16.497 36.846 36.844 36.846 20.354 0 36.854-16.494 36.854-36.846z" />
<glyph unicode="&#xe90a;" glyph-name="facebook" horiz-adv-x="1058" d="M641.621 427.953h-91.488v-334.701h-138.612v334.701h-65.922v117.627h65.922v76.118c0 54.433 25.894 139.668 139.844 139.668l102.673-0.429v-114.177h-74.496c-12.22 0-29.399-6.097-29.399-32.063v-69.226h103.584l-12.107-117.518z" />
<glyph unicode="&#xe90b;" glyph-name="chevron-next" horiz-adv-x="531" d="M66.396-51.113l-56.943 50.112 395.137 449.020-395.137 449.018 56.943 50.11 439.232-499.128-439.232-499.132z" />
<glyph unicode="&#xe90c;" glyph-name="chevron-prev" horiz-adv-x="531" d="M464.566 947.111l56.942-50.11-395.135-449.020 395.135-449.016-56.942-50.112-439.233 499.128 439.233 499.13z" />
<glyph unicode="&#xe90d;" glyph-name="tv" horiz-adv-x="1408" d="M1216.678 192c-22.131-38.259-63.494-64-110.874-64h-803.617c-47.378 0-88.744 25.741-110.876 64-10.891 18.829-17.124 40.685-17.124 64v576c0 70.692 57.308 128 128 128h803.617c70.694 0 128-57.308 128-128v-576c0-23.315-6.234-45.171-17.126-64zM64 64h1280c35.347 0 64-28.653 64-64s-28.653-64-64-64h-1280c-35.346 0-64 28.653-64 64s28.654 64 64 64zM1105.805 832h-803.617v-576h803.617v576z" />
<glyph unicode="&#xe90e;" glyph-name="study" horiz-adv-x="1205" d="M599.592 783.529l440.304-260.797-437.061-243.331-426.835 258.706 423.592 245.422zM115.606 642.346c-79.189-45.881-80.316-159.826-2.049-207.264l426.835-258.702c37.017-22.438 83.225-23.293 121.046-2.235l437.061 243.33c81.233 45.226 82.787 161.527 2.795 208.91l-440.308 260.797c-37.502 22.212-84.075 22.436-121.787 0.586l-423.593-245.422zM240.901 357.617h120.471v-301.176h481.881v301.176h120.471v-421.647h-722.822v421.647z" />
<glyph unicode="&#xe90f;" glyph-name="search" d="M991.291 27.297l-243.712 253.476c62.661 74.491 96.995 168.216 96.995 265.788 0 227.967-185.471 413.439-413.437 413.439s-413.44-185.473-413.44-413.439c0-227.967 185.473-413.441 413.44-413.441 85.582 0 167.137 25.812 236.864 74.818l245.568-255.4c10.262-10.657 24.064-16.538 38.861-16.538 14 0 27.29 5.339 37.369 15.045 21.431 20.619 22.111 54.806 1.492 76.251zM431.136 852.146c168.504 0 305.588-137.082 305.588-305.586s-137.084-305.586-305.588-305.586c-168.504 0-305.586 137.083-305.586 305.586s137.082 305.586 305.586 305.586z" />
<glyph unicode="&#xe910;" glyph-name="chevron-down" horiz-adv-x="1536" d="M768.009 373.010l-506.824 506.823-181.019-181.019 687.843-687.84 687.846 687.84-181.018 181.019-506.828-506.823z" />
<glyph unicode="&#xe911;" glyph-name="checked" horiz-adv-x="1365" d="M1330.711 764.489l-783.53-759.417-512.626 496.853 158.373 163.4 354.253-343.353 625.151 605.917 158.379-163.4z" />
<glyph unicode="&#xe912;" glyph-name="award" horiz-adv-x="958" d="M954.081 96.302l-117.433 251.828c-64.842-94.416-166.083-161.647-283.278-182.031l98.304-210.802c12.569-26.974 51.464-25.174 61.589 2.682l50.384 138.408 10.385 4.839 138.408-50.384c27.774-10.194 54.193 18.591 41.64 45.459zM478.958 960c-202.372 0-367.032-164.65-367.032-367.031s164.662-367.031 367.032-367.031c202.372 0 367.031 164.649 367.031 367.031s-164.656 367.031-367.031 367.031zM657.547 619.936l-65.083-63.445 15.38-89.607c4.704-27.357-24.123-47.913-48.422-35.169l-80.46 42.295-80.463-42.295c-24.437-12.83-53.099 7.964-48.422 35.169l15.38 89.61-65.082 63.445c-19.78 19.283-8.802 52.944 18.49 56.911l89.953 13.066 40.233 81.506c12.172 24.752 47.636 24.774 59.825 0l40.233-81.506 89.953-13.066c27.288-3.964 38.265-37.628 18.485-56.914zM121.263 348.13l-117.432-251.828c-12.61-26.994 14.046-55.62 41.642-45.452l138.408 50.384 10.384-4.843 50.386-138.408c10.102-27.797 48.992-29.713 61.586-2.686l98.302 210.802c-117.193 20.384-218.432 87.615-283.276 182.031z" />
<glyph unicode="&#xe913;" glyph-name="menu" horiz-adv-x="1382" d="M1382.4 857.6h-972.8v102.4h972.8v-102.4zM1382.4 243.2h-972.8v102.4h972.8v-102.4zM1382.4 550.4h-972.8v102.4h972.8v-102.4zM1382.4-64h-972.8v102.4h972.8v-102.4zM204.8 550.4h-204.8v102.4h204.8v-102.4zM204.8-64h-204.8v102.4h204.8v-102.4zM204.8 857.6h-204.8v102.4h204.8v-102.4zM204.8 243.2h-204.8v102.4h204.8v-102.4z" />
<glyph unicode="&#xe914;" glyph-name="corner-down-right" d="M128 768v-298.667c0-58.88 23.936-112.299 62.464-150.869s91.989-62.464 150.869-62.464h409.003l-140.501-140.501c-16.683-16.683-16.683-43.691 0-60.331s43.691-16.683 60.331 0l213.333 213.333c3.925 3.925 7.083 8.619 9.259 13.824 6.4 15.445 3.328 33.92-9.259 46.507l-213.333 213.333c-16.683 16.683-43.691 16.683-60.331 0s-16.683-43.691 0-60.331l140.501-140.501h-409.003c-35.371 0-67.285 14.293-90.496 37.504s-37.504 55.125-37.504 90.496v298.667c0 23.552-19.115 42.667-42.667 42.667s-42.667-19.115-42.667-42.667z" />
<glyph unicode="&#xe915;" glyph-name="cancel" d="M568.32 448l179.2 179.2c15.36 15.36 15.36 40.96 0 56.32s-40.96 15.36-56.32 0l-179.2-179.2-179.2 174.080c-15.36 15.36-40.96 15.36-56.32 0s-15.36-40.96 0-56.32l179.2-174.080-179.2-179.2c-15.36-15.36-15.36-40.96 0-56.32 5.12-5.12 15.36-10.24 25.6-10.24s20.48 5.12 25.6 10.24l179.2 179.2 179.2-179.2c5.12-5.12 15.36-10.24 25.6-10.24s20.48 5.12 25.6 10.24c15.36 15.36 15.36 40.96 0 56.32l-168.96 179.2z" />
<glyph unicode="&#xe916;" glyph-name="corner-up-left" d="M896 85.334v298.667c0 58.88-23.936 112.299-62.464 150.869s-91.989 62.464-150.869 62.464h-409.003l140.501 140.501c16.683 16.683 16.683 43.691 0 60.331s-43.691 16.683-60.331 0l-213.333-213.333c-4.096-4.096-7.168-8.789-9.259-13.824s-3.243-10.539-3.243-16.341 1.152-11.307 3.243-16.341c2.091-5.035 5.163-9.728 9.259-13.824l213.333-213.333c16.683-16.683 43.691-16.683 60.331 0s16.683 43.691 0 60.331l-140.501 140.501h409.003c35.371 0 67.285-14.293 90.496-37.504s37.504-55.125 37.504-90.496v-298.667c0-23.552 19.115-42.667 42.667-42.667s42.667 19.115 42.667 42.667z" />
<glyph unicode="&#xe917;" glyph-name="edit-2" d="M695.168 840.832l-576-576c-4.992-4.949-8.96-11.435-11.008-18.944l-64-234.667c-1.963-6.955-2.091-14.763 0-22.443 6.187-22.741 29.653-36.139 52.395-29.952l234.667 64c6.784 1.792 13.44 5.504 18.944 11.008l576 576c31.872 31.872 47.829 73.771 47.829 115.499s-15.957 83.627-47.829 115.499-73.771 47.829-115.499 47.829-83.627-15.957-115.499-47.829zM755.499 780.502c15.232 15.232 35.157 22.827 55.168 22.827s39.936-7.595 55.168-22.869 22.827-35.115 22.827-55.125-7.595-39.936-22.827-55.168l-567.979-567.979-151.723-41.387 41.387 151.68z" />
</font>
</defs>
</svg>
